<svg width="40" height="40" viewBox="0 0 40 40" fill="none" xmlns="http://www.w3.org/2000/svg">
<circle cx="20" cy="20" r="20" fill="white"/>
<path d="M22.0625 31.5625C20.1562 31.5625 18.4635 31.2969 16.9844 30.7656C15.5052 30.2344 14.375 29.4323 13.5938 28.3594C12.8125 27.276 12.5 25.9167 12.6562 24.2812C12.7396 23.4792 12.8333 22.651 12.9375 21.7969C13.0521 20.9427 13.1719 20.1198 13.2969 19.3281H11.2344C10.8073 19.3281 10.4375 19.3177 10.125 19.2969C9.82292 19.276 9.57812 19.2396 9.39062 19.1875L10.3594 15.6094H13.6719C13.8698 14.1615 14.0052 12.9427 14.0781 11.9531C14.1615 10.9531 14.25 10.0729 14.3438 9.3125C14.9688 9.25 15.7135 9.1875 16.5781 9.125C17.4427 9.0625 18.3438 9.00521 19.2812 8.95312C20.2188 8.90104 21.1094 8.85938 21.9531 8.82812C22.8073 8.79688 23.5312 8.78125 24.125 8.78125L23.375 15.6719H28.8281C29.3594 15.6719 29.8177 15.7292 30.2031 15.8438L29.375 19.1719C29.1562 19.2448 28.901 19.2917 28.6094 19.3125C28.3281 19.3333 28.0208 19.3438 27.6875 19.3438C27.5417 19.3438 27.3958 19.3438 27.25 19.3438C27.1042 19.3333 26.9531 19.3281 26.7969 19.3281H22.9219C22.7865 20.0885 22.6615 20.8385 22.5469 21.5781C22.4427 22.3073 22.3594 23.0104 22.2969 23.6875C22.224 24.4792 22.3125 25.0833 22.5625 25.5C22.8229 25.9167 23.1875 26.1979 23.6562 26.3438C24.1354 26.4896 24.6615 26.5625 25.2344 26.5625H25.25C25.7708 26.5625 26.3229 26.5052 26.9062 26.3906C27.4896 26.276 28.0469 26.1458 28.5781 26C29.1198 25.8542 29.5677 25.7344 29.9219 25.6406L29.8281 30.3125C29.099 30.5938 28.2552 30.8281 27.2969 31.0156C26.349 31.2031 25.4062 31.3385 24.4688 31.4219C23.5312 31.5156 22.7292 31.5625 22.0625 31.5625Z" fill="black"/>
<ellipse cx="19" cy="8.5" rx="4" ry="3.5" fill="white"/>
</svg>